<svg width="80" height="51" viewBox="0 0 80 51" fill="none" xmlns="http://www.w3.org/2000/svg">
<path d="M40 50.25C62.0914 50.25 80 46.3325 80 41.5C80 36.6675 62.0914 32.75 40 32.75C17.9086 32.75 0 36.6675 0 41.5C0 46.3325 17.9086 50.25 40 50.25Z" fill="#FBFBFF"/>
<path d="M55.6428 2.08633L55.6649 2.12188L55.6925 2.15326L68.25 16.389V27.25H11.75V16.3902L24.3075 2.15198L24.3351 2.12072L24.3571 2.08532C24.9045 1.2051 25.6528 0.75 26.3663 0.75H53.6338C54.3471 0.75 55.0953 1.20499 55.6428 2.08633Z" fill="#F1F2FC" stroke="#EBECFF"/>
<path d="M52.5163 20.1637C52.5163 19.2602 52.7967 18.4527 53.2288 17.8817C53.6608 17.311 54.2208 17.0005 54.8002 17H68.25V39.1712C68.25 40.3979 67.868 41.4965 67.2726 42.2777C66.6775 43.0587 65.8914 43.5 65.0625 43.5H14.9375C14.1087 43.5 13.3226 43.0585 12.7274 42.2773C12.132 41.4958 11.75 40.3973 11.75 39.1712V17H25.2C25.7796 17 26.3396 17.3098 26.7713 17.8796C27.2033 18.4497 27.4837 19.2565 27.4837 20.16V20.1875C27.4837 22.3422 28.8515 24.3137 30.78 24.3137H49.22C50.1784 24.3137 51.0131 23.804 51.5922 23.05C52.1711 22.2963 52.5163 21.2768 52.5163 20.1725V20.1637Z" fill="#FBFBFF" stroke="#EBECFF"/>
</svg>
